<svg width="158" height="112" xmlns="http://www.w3.org/2000/svg" xmlns:xlink="http://www.w3.org/1999/xlink" xml:space="preserve" overflow="hidden"><defs><clipPath id="clip0"><rect x="0" y="0" width="158" height="112"/></clipPath><clipPath id="clip1"><rect x="0" y="0" width="158" height="112"/></clipPath></defs><g clip-path="url(#clip0)"><g clip-path="url(#clip1)"><path d="M0 0 0 395.984 279.074 395.984 279.074 0Z" fill="#FFFFFF" fill-rule="nonzero" fill-opacity="1" transform="matrix(1.00546 0 0 1 -69.0189 -90.4585)"/><path d="M8.73688 2.09275C9.86374 2.42935 10.4491 3.43914 10.493 5.12212 10.493 5.2831 10.4199 5.35628 10.2589 5.35628 10.1125 5.35628 10.0394 5.2831 10.0247 5.13676 10.0101 4.50747 9.87838 4.02452 9.61495 3.67329 9.32226 3.27816 8.6637 2.83912 8.01978 2.83912 7.58074 2.83912 7.11243 3.02937 6.62949 3.40987 6.35143 3.62939 6.11728 3.81964 5.94166 3.96599 4.9026 4.87333 4.00989 5.32701 3.24889 5.32701 3.02937 5.32701 2.80985 5.29774 2.59033 5.22456 1.34639 4.8587 0.863443 3.83427 0.819539 2.19519 0.819539 2.03421 0.892713 1.96104 1.05369 1.96104 1.20004 1.96104 1.27321 2.03421 1.28785 2.18056 1.30248 2.80985 1.43419 3.29279 1.69762 3.64402 1.97568 4.02452 2.6635 4.4782 3.29279 4.4782 3.73183 4.4782 4.20014 4.28795 4.68308 3.90745 4.96114 3.68793 5.19529 3.49768 5.37091 3.35133 6.40997 2.44398 7.30268 1.99031 8.06368 1.99031 8.2832 1.99031 8.51736 2.01958 8.73688 2.09275Z" fill="#000000" fill-rule="nonzero" fill-opacity="1" transform="matrix(1.00546 0 0 -1 15.6724 15.3273)"/><path d="M5.19529 6.46851C4.55137 6.46851 3.93672 6.13191 3.3367 5.45872 3.17572 6.13191 2.72204 6.46851 2.00494 6.46851 1.40492 6.46851 0.965886 5.98556 0.658558 5.03431 0.512212 4.55137 0.439039 4.27331 0.439039 4.1855 0.439039 4.05379 0.512212 3.98062 0.673193 3.98062 0.746366 3.98062 0.79027 3.99525 0.834174 4.02452 0.907347 4.15624 0.951251 4.25868 0.965886 4.36112 1.22931 5.47335 1.56591 6.02947 1.96104 6.02947 2.22446 6.02947 2.35618 5.82458 2.35618 5.42945 2.35618 5.20993 2.32691 4.96114 2.25373 4.69772L0.643924-1.72689C0.512212-2.20983 0.497578-2.26837-0.0731732-2.26837-0.336597-2.26837-0.468308-2.38544-0.468308-2.60496-0.468308-2.76595-0.3805-2.83912-0.219519-2.83912 0-2.83912 0.761001-2.79521 0.98052-2.79521 1.25858-2.79521 2.13666-2.83912 2.41471-2.83912 2.63423-2.83912 2.73668-2.72204 2.73668-2.48789 2.73668-2.34154 2.60496-2.26837 2.32691-2.26837 2.06348-2.26837 1.66835-2.283 1.66835-2.10739 1.66835-1.91714 2.26837 0.3805 2.32691 0.629289 2.6196 0.0878078 3.05864-0.19025 3.64402-0.19025 4.59527-0.19025 5.42945 0.292693 6.16118 1.27321 6.83437 2.16593 7.17097 3.11718 7.17097 4.0977 7.17097 5.37091 6.40997 6.46851 5.19529 6.46851ZM5.15139 6.02947C5.72214 6.02947 6.01483 5.59043 6.01483 4.72699 6.01483 4.33185 5.92703 3.805 5.76605 3.14645 5.42945 1.87323 5.00504 1.03906 4.49283 0.614655 4.1855 0.365866 3.90745 0.234154 3.62939 0.234154 3.20498 0.234154 2.91229 0.424404 2.75131 0.819539 2.6196 1.12687 2.54643 1.34639 2.54643 1.46346L3.29279 4.5221C3.36597 4.84406 3.62939 5.18066 4.03916 5.51726 4.44893 5.85385 4.81479 6.02947 5.15139 6.02947Z" fill="#000000" fill-rule="nonzero" fill-opacity="1" transform="matrix(1.00546 0 0 -1 31.1342 15.3273)"/><path d="M13.6395 3.4245C13.7419 3.46841 13.8005 3.55622 13.8005 3.65866 13.8005 3.7611 13.7419 3.84891 13.6395 3.89281 12.937 4.12697 12.2785 4.62454 11.6638 5.38554 11.254 5.89776 10.976 6.49778 10.8443 7.1856 10.8004 7.37585 10.6833 7.46366 10.493 7.46366 10.2589 7.46366 10.1418 7.34659 10.1418 7.0978L10.1564 7.06853 10.1564 7.05389C10.4052 5.78068 11.0491 4.77089 12.1175 4.00989L1.20004 4.00989C0.965886 4.00989 0.848809 3.89281 0.848809 3.65866 0.848809 3.4245 0.965886 3.30743 1.20004 3.30743L12.1175 3.30743C11.0491 2.54643 10.4052 1.53664 10.1564 0.263423L10.1564 0.248789 10.1418 0.219519C10.1418-0.0292693 10.2589-0.146346 10.493-0.146346 10.6833-0.146346 10.8004-0.0585385 10.8443 0.131712 10.976 0.819539 11.254 1.41956 11.6638 1.93177 12.2785 2.69277 12.937 3.19035 13.6395 3.4245Z" fill="#000000" fill-rule="nonzero" fill-opacity="1" transform="matrix(1.00546 0 0 -1 53.4709 15.3273)"/><path d="M4.65381-3.62939C4.78552-3.62939 4.8587-3.55622 4.8587-3.4245 4.8587-3.3806 4.82943-3.32206 4.78552-3.26352 4.02452-2.67814 3.40987-1.71225 2.9562-0.3805 2.56106 0.775635 2.35618 1.91714 2.35618 3.044L2.35618 4.27331C2.35618 5.40018 2.56106 6.54168 2.9562 7.69782 3.40987 9.02957 4.02452 9.99545 4.78552 10.5808 4.82943 10.6247 4.8587 10.6833 4.8587 10.7418 4.8587 10.8735 4.78552 10.9467 4.65381 10.9467 4.63918 10.9467 4.59527 10.9321 4.55137 10.9028 3.67329 10.2296 2.94156 9.23445 2.34154 7.9027 1.77079 6.62949 1.4781 5.42945 1.4781 4.27331L1.4781 3.044C1.4781 1.88787 1.77079 0.687828 2.34154-0.585385 2.94156-1.91714 3.67329-2.91229 4.55137-3.58548 4.59527-3.61475 4.63918-3.62939 4.65381-3.62939Z" fill="#000000" fill-rule="nonzero" fill-opacity="1" transform="matrix(1.00546 0 0 -1 82.9001 15.3273)"/><path d="M5.19529 6.46851C4.55137 6.46851 3.93672 6.13191 3.3367 5.45872 3.17572 6.13191 2.72204 6.46851 2.00494 6.46851 1.40492 6.46851 0.965886 5.98556 0.658558 5.03431 0.512212 4.55137 0.439039 4.27331 0.439039 4.1855 0.439039 4.05379 0.512212 3.98062 0.673193 3.98062 0.746366 3.98062 0.79027 3.99525 0.834174 4.02452 0.907347 4.15624 0.951251 4.25868 0.965886 4.36112 1.22931 5.47335 1.56591 6.02947 1.96104 6.02947 2.22446 6.02947 2.35618 5.82458 2.35618 5.42945 2.35618 5.20993 2.32691 4.96114 2.25373 4.69772L0.643924-1.72689C0.512212-2.20983 0.497578-2.26837-0.0731732-2.26837-0.336597-2.26837-0.468308-2.38544-0.468308-2.60496-0.468308-2.76595-0.3805-2.83912-0.219519-2.83912 0-2.83912 0.761001-2.79521 0.98052-2.79521 1.25858-2.79521 2.13666-2.83912 2.41471-2.83912 2.63423-2.83912 2.73668-2.72204 2.73668-2.48789 2.73668-2.34154 2.60496-2.26837 2.32691-2.26837 2.06348-2.26837 1.66835-2.283 1.66835-2.10739 1.66835-1.91714 2.26837 0.3805 2.32691 0.629289 2.6196 0.0878078 3.05864-0.19025 3.64402-0.19025 4.59527-0.19025 5.42945 0.292693 6.16118 1.27321 6.83437 2.16593 7.17097 3.11718 7.17097 4.0977 7.17097 5.37091 6.40997 6.46851 5.19529 6.46851ZM5.15139 6.02947C5.72214 6.02947 6.01483 5.59043 6.01483 4.72699 6.01483 4.33185 5.92703 3.805 5.76605 3.14645 5.42945 1.87323 5.00504 1.03906 4.49283 0.614655 4.1855 0.365866 3.90745 0.234154 3.62939 0.234154 3.20498 0.234154 2.91229 0.424404 2.75131 0.819539 2.6196 1.12687 2.54643 1.34639 2.54643 1.46346L3.29279 4.5221C3.36597 4.84406 3.62939 5.18066 4.03916 5.51726 4.44893 5.85385 4.81479 6.02947 5.15139 6.02947Z" fill="#000000" fill-rule="nonzero" fill-opacity="1" transform="matrix(1.00546 0 0 -1 88.6241 15.3273)"/><path d="M5.22456-0.0731732 8.73688 8.31247C8.75151 8.35637 8.76614 8.41491 8.76614 8.45882 8.76614 8.67834 8.64907 8.79541 8.40028 8.79541 8.25393 8.79541 8.15149 8.72224 8.09295 8.59053L4.88797 0.907347 1.66835 8.59053C1.60981 8.72224 1.50737 8.79541 1.36102 8.79541 1.12687 8.79541 0.921982 8.57589 1.03906 8.31247L4.55137-0.0731732C4.60991-0.219519 4.72699-0.292693 4.88797-0.292693 5.04895-0.292693 5.16603-0.219519 5.22456-0.0731732Z" fill="#000000" fill-rule="nonzero" fill-opacity="1" transform="matrix(1.00546 0 0 -1 110.961 15.3273)"/><path d="M5.44408 5.51726C5.15139 6.14655 4.69772 6.46851 4.0977 6.46851 3.14645 6.46851 2.31227 5.98556 1.59517 5.00504 0.921982 4.0977 0.585385 3.16108 0.585385 2.18056 0.585385 0.907347 1.31712-0.19025 2.53179-0.19025 3.05864-0.19025 3.58548 0.0585385 4.12697 0.556116L3.52695-1.84396C3.48304-2.06348 3.35133-2.19519 3.14645-2.2391 3.07327-2.25373 2.88302-2.26837 2.54643-2.26837 2.45862-2.283 2.40008-2.283 2.37081-2.283 2.2391-2.29764 2.16593-2.41471 2.16593-2.6196L2.16593-2.67814C2.20983-2.78058 2.29764-2.83912 2.41471-2.83912 2.69277-2.83912 3.57085-2.79521 3.84891-2.79521 4.12697-2.79521 5.04895-2.83912 5.32701-2.83912 5.53189-2.83912 5.63433-2.72204 5.63433-2.48789 5.63433-2.34154 5.48799-2.26837 5.20993-2.26837 4.94651-2.26837 4.58064-2.283 4.58064-2.10739 4.58064-2.04885 4.59527-1.94641 4.63918-1.80006L6.61485 6.24899C6.61485 6.3807 6.54168 6.45387 6.40997 6.45387 6.14655 6.45387 5.59043 5.72214 5.44408 5.51726ZM4.97577 5.45872C5.10749 5.15139 5.18066 4.94651 5.18066 4.81479 5.18066 4.80016 5.16603 4.71235 5.13676 4.58064L4.78552 3.16108C4.50747 2.10739 4.37575 1.56591 4.36112 1.53664 4.08306 1.02442 3.27816 0.234154 2.5757 0.234154 2.00494 0.234154 1.71225 0.673193 1.71225 1.53664 1.71225 2.20983 2.16593 3.84891 2.37081 4.39039 2.64887 5.07822 3.29279 6.02947 4.0977 6.02947 4.49283 6.02947 4.78552 5.83922 4.97577 5.45872Z" fill="#000000" fill-rule="nonzero" fill-opacity="1" transform="matrix(1.00546 0 0 -1 135.49 15.3273)"/><path d="M1.1415-3.58548C2.01958-2.91229 2.75131-1.91714 3.35133-0.585385 3.92208 0.687828 4.21477 1.88787 4.21477 3.044L4.21477 4.27331C4.21477 5.42945 3.92208 6.62949 3.35133 7.9027 2.75131 9.23445 2.01958 10.2296 1.1415 10.9028 1.0976 10.9321 1.05369 10.9467 1.03906 10.9467 0.907347 10.9467 0.834174 10.8735 0.834174 10.7418 0.834174 10.6833 0.863443 10.6247 0.907347 10.5808 1.66835 9.99545 2.283 9.02957 2.73668 7.69782 3.13181 6.54168 3.3367 5.40018 3.3367 4.27331L3.3367 3.044C3.3367 1.91714 3.13181 0.775635 2.73668-0.3805 2.283-1.71225 1.66835-2.67814 0.907347-3.26352 0.863443-3.32206 0.834174-3.3806 0.834174-3.4245 0.834174-3.55622 0.907347-3.62939 1.03906-3.62939 1.05369-3.62939 1.0976-3.61475 1.1415-3.58548Z" fill="#000000" fill-rule="nonzero" fill-opacity="1" transform="matrix(1.00546 0 0 -1 142.553 15.3273)"/><path d="M2.91229 9.60032C2.91229 9.45397 3.07327 9.3808 3.3806 9.3808 3.96599 9.3808 4.25868 9.32226 4.25868 9.19055 4.25868 9.14664 4.22941 9.0442 4.1855 8.85395L2.283 1.20004C2.19519 0.878078 2.04885 0.687828 1.84396 0.614655 1.74152 0.585385 1.4781 0.570751 1.02442 0.570751 0.702462 0.570751 0.556116 0.541481 0.556116 0.234154 0.556116 0.0731732 0.643924 0 0.834174 0L2.73668 0.0439039 4.9026 0C5.13676 0 5.25383 0.117077 5.25383 0.336597 5.25383 0.585385 5.09285 0.570751 4.71235 0.570751 4.06843 0.570751 3.70256 0.60002 3.61475 0.673193 3.57085 0.687828 3.55622 0.746366 3.55622 0.819539L4.49283 4.69772 5.85385 4.69772C6.52705 4.69772 6.99535 4.66845 6.99535 4.11233 6.99535 3.92208 6.96608 3.68793 6.89291 3.40987 6.87828 3.36597 6.86364 3.30743 6.84901 3.24889 6.84901 3.08791 6.92218 3.01473 7.08316 3.01473 7.15634 3.02937 7.25878 3.13181 7.36122 3.35133L8.15149 6.49778C8.18076 6.61485 8.19539 6.70266 8.19539 6.74657 8.15149 6.87828 8.06368 6.95145 7.96124 6.95145 7.84416 6.95145 7.75635 6.83437 7.69782 6.61485 7.55147 6.05874 7.34659 5.70751 7.11243 5.53189 6.87828 5.35628 6.46851 5.26847 5.88312 5.26847L4.63918 5.26847 5.54653 8.86859C5.6636 9.36616 5.6636 9.3808 6.27826 9.3808L8.18076 9.3808C9.60032 9.3808 10.2442 9.16128 10.2442 7.8588 10.2442 7.5661 10.2296 7.30268 10.2003 7.08316 10.1857 6.92218 10.1711 6.83437 10.1711 6.81974 10.1711 6.65876 10.2442 6.58558 10.3906 6.58558 10.5369 6.58558 10.6247 6.7173 10.654 6.99535L10.9467 9.49788C10.9906 9.90765 10.8882 9.95155 10.493 9.95155L3.40987 9.95155C3.07327 9.95155 2.91229 9.93692 2.91229 9.60032Z" fill="#000000" fill-rule="nonzero" fill-opacity="1" transform="matrix(1.00546 0 0 -1 49.715 32.2271)"/><path d="M5.03431 9.23445C5.03431 9.19055 5.01968 9.08811 4.97577 8.94176L3.044 1.21467C2.98546 0.995155 2.92693 0.863443 2.88302 0.804905 2.75131 0.643924 2.25373 0.570751 1.37566 0.570751 0.921982 0.570751 0.717097 0.614655 0.717097 0.234154 0.717097 0.0731732 0.819539 0 1.00979 0 1.75616 0 2.80985 0.0585385 3.43914 0.0439039L4.63918 0.0292693C4.84406 0.0292693 5.64897 0 5.89776 0 6.14655 0 6.26362 0.117077 6.26362 0.351231 6.26362 0.497578 6.08801 0.570751 5.72214 0.570751 4.96114 0.570751 4.5221 0.60002 4.39039 0.673193 4.34649 0.702462 4.31722 0.761001 4.31722 0.848809L6.29289 8.82468C6.3368 9.02957 6.3807 9.16128 6.4246 9.20518 6.48314 9.29299 6.83437 9.33689 7.4783 9.33689 8.2832 9.33689 8.83932 9.27836 9.11738 9.14664 9.39543 9.01493 9.54178 8.70761 9.54178 8.21003 9.54178 7.94661 9.49788 7.5661 9.4247 7.06853 9.39543 6.95145 9.3808 6.86364 9.3808 6.79047 9.3808 6.62949 9.45397 6.54168 9.61495 6.54168 9.74667 6.54168 9.83447 6.67339 9.87838 6.92218L10.2735 9.43934C10.2881 9.51251 10.3028 9.60032 10.3028 9.68813 10.3028 9.83447 10.1564 9.90765 9.84911 9.90765L1.82933 9.90765C1.44883 9.90765 1.41956 9.86374 1.30248 9.58568L0.439039 7.03926C0.395135 6.90755 0.365866 6.81974 0.351231 6.7612 0.351231 6.61485 0.424404 6.54168 0.585385 6.54168 0.702462 6.54168 0.804905 6.65876 0.878078 6.87828 1.24394 7.94661 1.60981 8.60516 1.94641 8.88322 2.32691 9.19055 3.05864 9.33689 4.12697 9.33689L4.69772 9.33689C4.8587 9.33689 5.03431 9.35153 5.03431 9.23445Z" fill="#000000" fill-rule="nonzero" fill-opacity="1" transform="matrix(1.00546 0 0 -1 8.3354 54.8547)"/><path d="M2.91229 9.60032C2.91229 9.45397 3.07327 9.3808 3.3806 9.3808 3.96599 9.3808 4.25868 9.32226 4.25868 9.19055 4.25868 9.14664 4.22941 9.0442 4.1855 8.85395L2.283 1.20004C2.19519 0.878078 2.04885 0.687828 1.84396 0.614655 1.74152 0.585385 1.4781 0.570751 1.02442 0.570751 0.702462 0.570751 0.556116 0.541481 0.556116 0.234154 0.556116 0.0731732 0.643924 0 0.834174 0L2.73668 0.0439039 4.9026 0C5.13676 0 5.25383 0.117077 5.25383 0.336597 5.25383 0.585385 5.09285 0.570751 4.71235 0.570751 4.06843 0.570751 3.70256 0.60002 3.61475 0.673193 3.57085 0.687828 3.55622 0.746366 3.55622 0.819539L4.49283 4.69772 5.85385 4.69772C6.52705 4.69772 6.99535 4.66845 6.99535 4.11233 6.99535 3.92208 6.96608 3.68793 6.89291 3.40987 6.87828 3.36597 6.86364 3.30743 6.84901 3.24889 6.84901 3.08791 6.92218 3.01473 7.08316 3.01473 7.15634 3.02937 7.25878 3.13181 7.36122 3.35133L8.15149 6.49778C8.18076 6.61485 8.19539 6.70266 8.19539 6.74657 8.15149 6.87828 8.06368 6.95145 7.96124 6.95145 7.84416 6.95145 7.75635 6.83437 7.69782 6.61485 7.55147 6.05874 7.34659 5.70751 7.11243 5.53189 6.87828 5.35628 6.46851 5.26847 5.88312 5.26847L4.63918 5.26847 5.54653 8.86859C5.6636 9.36616 5.6636 9.3808 6.27826 9.3808L8.18076 9.3808C9.60032 9.3808 10.2442 9.16128 10.2442 7.8588 10.2442 7.5661 10.2296 7.30268 10.2003 7.08316 10.1857 6.92218 10.1711 6.83437 10.1711 6.81974 10.1711 6.65876 10.2442 6.58558 10.3906 6.58558 10.5369 6.58558 10.6247 6.7173 10.654 6.99535L10.9467 9.49788C10.9906 9.90765 10.8882 9.95155 10.493 9.95155L3.40987 9.95155C3.07327 9.95155 2.91229 9.93692 2.91229 9.60032Z" fill="#000000" fill-rule="nonzero" fill-opacity="1" transform="matrix(1.00546 0 0 -1 114.177 54.8547)"/><path d="M2.91229 9.60032C2.91229 9.45397 3.07327 9.3808 3.3806 9.3808 3.96599 9.3808 4.25868 9.32226 4.25868 9.19055 4.25868 9.14664 4.22941 9.0442 4.1855 8.85395L2.283 1.20004C2.19519 0.878078 2.04885 0.687828 1.84396 0.614655 1.74152 0.585385 1.4781 0.570751 1.02442 0.570751 0.702462 0.570751 0.556116 0.541481 0.556116 0.234154 0.556116 0.0731732 0.643924 0 0.834174 0L2.73668 0.0439039 4.9026 0C5.13676 0 5.25383 0.117077 5.25383 0.336597 5.25383 0.585385 5.09285 0.570751 4.71235 0.570751 4.06843 0.570751 3.70256 0.60002 3.61475 0.673193 3.57085 0.687828 3.55622 0.746366 3.55622 0.819539L4.49283 4.69772 5.85385 4.69772C6.52705 4.69772 6.99535 4.66845 6.99535 4.11233 6.99535 3.92208 6.96608 3.68793 6.89291 3.40987 6.87828 3.36597 6.86364 3.30743 6.84901 3.24889 6.84901 3.08791 6.92218 3.01473 7.08316 3.01473 7.15634 3.02937 7.25878 3.13181 7.36122 3.35133L8.15149 6.49778C8.18076 6.61485 8.19539 6.70266 8.19539 6.74657 8.15149 6.87828 8.06368 6.95145 7.96124 6.95145 7.84416 6.95145 7.75635 6.83437 7.69782 6.61485 7.55147 6.05874 7.34659 5.70751 7.11243 5.53189 6.87828 5.35628 6.46851 5.26847 5.88312 5.26847L4.63918 5.26847 5.54653 8.86859C5.6636 9.36616 5.6636 9.3808 6.27826 9.3808L8.18076 9.3808C9.60032 9.3808 10.2442 9.16128 10.2442 7.8588 10.2442 7.5661 10.2296 7.30268 10.2003 7.08316 10.1857 6.92218 10.1711 6.83437 10.1711 6.81974 10.1711 6.65876 10.2442 6.58558 10.3906 6.58558 10.5369 6.58558 10.6247 6.7173 10.654 6.99535L10.9467 9.49788C10.9906 9.90765 10.8882 9.95155 10.493 9.95155L3.40987 9.95155C3.07327 9.95155 2.91229 9.93692 2.91229 9.60032Z" fill="#000000" fill-rule="nonzero" fill-opacity="1" transform="matrix(1.00546 0 0 -1 19.38 100.11)"/><path d="M2.91229 9.60032C2.91229 9.45397 3.07327 9.3808 3.3806 9.3808 3.96599 9.3808 4.25868 9.32226 4.25868 9.19055 4.25868 9.14664 4.22941 9.0442 4.1855 8.85395L2.283 1.20004C2.19519 0.878078 2.04885 0.687828 1.84396 0.614655 1.74152 0.585385 1.4781 0.570751 1.02442 0.570751 0.702462 0.570751 0.556116 0.541481 0.556116 0.234154 0.556116 0.0731732 0.643924 0 0.834174 0L2.73668 0.0439039 4.9026 0C5.13676 0 5.25383 0.117077 5.25383 0.336597 5.25383 0.585385 5.09285 0.570751 4.71235 0.570751 4.06843 0.570751 3.70256 0.60002 3.61475 0.673193 3.57085 0.687828 3.55622 0.746366 3.55622 0.819539L4.49283 4.69772 5.85385 4.69772C6.52705 4.69772 6.99535 4.66845 6.99535 4.11233 6.99535 3.92208 6.96608 3.68793 6.89291 3.40987 6.87828 3.36597 6.86364 3.30743 6.84901 3.24889 6.84901 3.08791 6.92218 3.01473 7.08316 3.01473 7.15634 3.02937 7.25878 3.13181 7.36122 3.35133L8.15149 6.49778C8.18076 6.61485 8.19539 6.70266 8.19539 6.74657 8.15149 6.87828 8.06368 6.95145 7.96124 6.95145 7.84416 6.95145 7.75635 6.83437 7.69782 6.61485 7.55147 6.05874 7.34659 5.70751 7.11243 5.53189 6.87828 5.35628 6.46851 5.26847 5.88312 5.26847L4.63918 5.26847 5.54653 8.86859C5.6636 9.36616 5.6636 9.3808 6.27826 9.3808L8.18076 9.3808C9.60032 9.3808 10.2442 9.16128 10.2442 7.8588 10.2442 7.5661 10.2296 7.30268 10.2003 7.08316 10.1857 6.92218 10.1711 6.83437 10.1711 6.81974 10.1711 6.65876 10.2442 6.58558 10.3906 6.58558 10.5369 6.58558 10.6247 6.7173 10.654 6.99535L10.9467 9.49788C10.9906 9.90765 10.8882 9.95155 10.493 9.95155L3.40987 9.95155C3.07327 9.95155 2.91229 9.93692 2.91229 9.60032Z" fill="#000000" fill-rule="nonzero" fill-opacity="1" transform="matrix(1.00546 0 0 -1 87.6337 92.5674)"/><path d="M2.91229 9.60032C2.91229 9.45397 3.07327 9.3808 3.3806 9.3808 3.96599 9.3808 4.25868 9.32226 4.25868 9.19055 4.25868 9.14664 4.22941 9.0442 4.1855 8.85395L2.283 1.20004C2.19519 0.878078 2.04885 0.687828 1.84396 0.614655 1.74152 0.585385 1.4781 0.570751 1.02442 0.570751 0.702462 0.570751 0.556116 0.541481 0.556116 0.234154 0.556116 0.0731732 0.643924 0 0.834174 0L2.73668 0.0439039 4.9026 0C5.13676 0 5.25383 0.117077 5.25383 0.336597 5.25383 0.585385 5.09285 0.570751 4.71235 0.570751 4.06843 0.570751 3.70256 0.60002 3.61475 0.673193 3.57085 0.687828 3.55622 0.746366 3.55622 0.819539L4.49283 4.69772 5.85385 4.69772C6.52705 4.69772 6.99535 4.66845 6.99535 4.11233 6.99535 3.92208 6.96608 3.68793 6.89291 3.40987 6.87828 3.36597 6.86364 3.30743 6.84901 3.24889 6.84901 3.08791 6.92218 3.01473 7.08316 3.01473 7.15634 3.02937 7.25878 3.13181 7.36122 3.35133L8.15149 6.49778C8.18076 6.61485 8.19539 6.70266 8.19539 6.74657 8.15149 6.87828 8.06368 6.95145 7.96124 6.95145 7.84416 6.95145 7.75635 6.83437 7.69782 6.61485 7.55147 6.05874 7.34659 5.70751 7.11243 5.53189 6.87828 5.35628 6.46851 5.26847 5.88312 5.26847L4.63918 5.26847 5.54653 8.86859C5.6636 9.36616 5.6636 9.3808 6.27826 9.3808L8.18076 9.3808C9.60032 9.3808 10.2442 9.16128 10.2442 7.8588 10.2442 7.5661 10.2296 7.30268 10.2003 7.08316 10.1857 6.92218 10.1711 6.83437 10.1711 6.81974 10.1711 6.65876 10.2442 6.58558 10.3906 6.58558 10.5369 6.58558 10.6247 6.7173 10.654 6.99535L10.9467 9.49788C10.9906 9.90765 10.8882 9.95155 10.493 9.95155L3.40987 9.95155C3.07327 9.95155 2.91229 9.93692 2.91229 9.60032Z" fill="#000000" fill-rule="nonzero" fill-opacity="1" transform="matrix(1.00546 0 0 -1 140.72 92.5674)"/><path d="M33.9415 0 0 15.0851" stroke="#000000" stroke-width="1.33042" stroke-linecap="butt" stroke-linejoin="miter" stroke-miterlimit="4" stroke-opacity="1" fill="none" fill-rule="nonzero" transform="matrix(1.00546 0 0 1 21.3047 34.7719)"/><path d="M0 0 60.3404 15.0851" stroke="#000000" stroke-width="1.33042" stroke-linecap="butt" stroke-linejoin="miter" stroke-miterlimit="4" stroke-opacity="1" fill="none" fill-rule="nonzero" transform="matrix(1.00546 0 0 1 55.4316 34.7719)"/><path d="M7.54254 33.9415 0 0" stroke="#000000" stroke-width="1.33042" stroke-linecap="butt" stroke-linejoin="miter" stroke-miterlimit="4" stroke-opacity="1" fill="none" fill-rule="nonzero" transform="matrix(1.00546 0 0 1 21.3047 49.857)"/><path d="M0 18.8564 26.3989 0" stroke="#000000" stroke-width="1.33042" stroke-linecap="butt" stroke-linejoin="miter" stroke-miterlimit="4" stroke-opacity="1" fill="none" fill-rule="nonzero" transform="matrix(1.00546 0 0 1 93.3504 61.1708)"/><path d="M22.6276 18.8564 0 0" stroke="#000000" stroke-width="1.33042" stroke-linecap="butt" stroke-linejoin="miter" stroke-miterlimit="4" stroke-opacity="1" fill="none" fill-rule="nonzero" transform="matrix(1.00546 0 0 1 119.893 61.1708)"/></g></g></svg>